{"title":"American.Reunion.2012.UNRATED.DVDRip.XviD-COCAIN","uid":7393598,"size":1468457494,"categoryP":"video","categoryS":"movies","magnet":"?xt=urn:btih:6945c14b04ab1931c19649e79d68c4922f7a6d79&amp;dn=American.Reunion.2012.UNRATED.DVDRip.XviD-COCAIN&amp;tr=udp%3A%2F%2Ftracker.openbittorrent.com%3A80&amp;tr=udp%3A%2F%2Fopen.demonii.com%3A1337&amp;tr=udp%3A%2F%2Ftracker.coppersurfer.tk%3A6969&amp;tr=udp%3A%2F%2Fexodus.desync.com%3A6969","seeders":1,"leechers":0,"uploader":"tykoon123","files":5,"time":1340850588,"description":"Poster: &lt;a href=&quot;\nhttp://leetleech.org/images/96832103253464159822.jpg&quot; rel=&quot;nofollow&quot; target=&quot;_NEW&quot;&gt;\nhttp://leetleech.org/images/96832103253464159822.jpg&lt;/a&gt;\n\nIMDB: http://www.imdb.com/title/tt1605630/\n\nFormat : AVI\nFormat/Info : Audio Video Interleave\nFile size : 1.36 GB\nDuration :113min\nOverall bit rate : 1 740 Kbps\n\nVideo\nID : 0\nFormat : MPEG-4 Visual\nFormat profile : Advanced Simple@L5\nFormat settings, BVOP : 2\nFormat settings, QPel : No\nFormat settings, GMC : No warppoints\nFormat settings, Matrix : Default (H.263)\nCodec ID : XVID\nCodec ID/Hint : XviD\nDuration : 56mn 15s\nBit rate : 1 283 Kbps\nWidth : 624 pixels\nHeight : 336 pixels\nDisplay aspect ratio : 1.857\nFrame rate : 23.976 fps\nColor space : YUV\nChroma subsampling : 4:2:0\nBit depth : 8 bits\nScan type : Progressive\nCompression mode : Lossy\nBits/(Pixel*Frame) : 0.255\nStream size : 516 MiB (74%)\nWriting library : XviD 1.2.1 (UTC 2008-12-04)\n\nAudio\nID : 1\nFormat : AC-3\nFormat/Info : Audio Coding 3\nMode extension : CM (complete main)\nCodec ID : 2000\nDuration : 56mn 15s\nBit rate mode : Constant\nBit rate : 448 Kbps\nChannel(s) : 6 channels\nChannel positions : Front: L C R, Side: L R, LFE\nSampling rate : 48.0 KHz\nBit depth : 16 bits\nCompression mode : Lossy\nStream size : 180 MiB (26%)\nAlignment : Aligned on interleaves\nInterleave, duration : 42 ms (1.00 video frame)\n\nSCREENS: &lt;a href=&quot;\nhttp://imgh.us/CD2_American.Reunion.UNRATED.DVDRip.XviD.CD2-COCAIN-014.jpg&quot; rel=&quot;nofollow&quot; target=&quot;_NEW&quot;&gt;\nhttp://imgh.us/CD2_American.Reunion.UNRATED.DVDRip.XviD.CD2-COCAIN-014.jpg&lt;/a&gt; &lt;a href=&quot;\nhttp://imgh.us/CD2_American.Reunion.UNRATED.DVDRip.XviD.CD2-COCAIN-010.jpg&quot; rel=&quot;nofollow&quot; target=&quot;_NEW&quot;&gt;\nhttp://imgh.us/CD2_American.Reunion.UNRATED.DVDRip.XviD.CD2-COCAIN-010.jpg&lt;/a&gt; &lt;a href=&quot;\nhttp://imgh.us/CD2_American.Reunion.UNRATED.DVDRip.XviD.CD2-COCAIN-009.jpg&quot; rel=&quot;nofollow&quot; target=&quot;_NEW&quot;&gt;\nhttp://imgh.us/CD2_American.Reunion.UNRATED.DVDRip.XviD.CD2-COCAIN-009.jpg&lt;/a&gt; &lt;a href=&quot;\nhttp://imgh.us/CD2_American.Reunion.UNRATED.DVDRip.XviD.CD2-COCAIN-004.jpg&quot; rel=&quot;nofollow&quot; target=&quot;_NEW&quot;&gt;\nhttp://imgh.us/CD2_American.Reunion.UNRATED.DVDRip.XviD.CD2-COCAIN-004.jpg&lt;/a&gt; &lt;a href=&quot;\nhttp://imgh.us/CD2_American.Reunion.UNRATED.DVDRip.XviD.CD2-COCAIN-003.jpg&quot; rel=&quot;nofollow&quot; target=&quot;_NEW&quot;&gt;\nhttp://imgh.us/CD2_American.Reunion.UNRATED.DVDRip.XviD.CD2-COCAIN-003.jpg&lt;/a&gt; &lt;a href=&quot;\nhttp://imgh.us/CD2_American.Reunion.UNRATED.DVDRip.XviD.CD2-COCAIN-002.jpg&quot; rel=&quot;nofollow&quot; target=&quot;_NEW&quot;&gt;\nhttp://imgh.us/CD2_American.Reunion.UNRATED.DVDRip.XviD.CD2-COCAIN-002.jpg&lt;/a&gt;","torrent":{"xt":"urn:btih:6945c14b04ab1931c19649e79d68c4922f7a6d79","amp;dn":"American.Reunion.2012.UNRATED.DVDRip.XviD-COCAIN","amp;tr":["udp%3A%2F%2Ftracker.openbittorrent.com%3A80","udp%3A%2F%2Fopen.demonii.com%3A1337","udp%3A%2F%2Ftracker.coppersurfer.tk%3A6969","udp%3A%2F%2Fexodus.desync.com%3A6969"],"infoHash":"6945c14b04ab1931c19649e79d68c4922f7a6d79","infoHashBuffer":{"type":"Buffer","data":[105,69,193,75,4,171,25,49,193,150,73,231,157,104,196,146,47,122,109,121]},"announce":[],"urlList":[]}}